<svg xmlns="http://www.w3.org/2000/svg" width="42" height="38.5" viewBox="0 0 42 38.5"><path d="M-21-40.25v10.5h1.75v28h38.5v-28H21v-10.5Zm3.5,3.5h35v3.5h-35Zm1.75,7h31.5v24.5h-31.5Zm10.172,3.5a1.62,1.62,0,0,0-1.176.629,1.763,1.763,0,0,0-.41,1.285,1.62,1.62,0,0,0,.629,1.176,1.763,1.763,0,0,0,1.285.41H5.25a1.887,1.887,0,0,0,.9-.219,1.5,1.5,0,0,0,.629-.629A1.887,1.887,0,0,0,7-24.5a1.887,1.887,0,0,0-.219-.9,1.5,1.5,0,0,0-.629-.629,1.887,1.887,0,0,0-.9-.219Z" transform="translate(21 40.25)" fill="#e33730"/></svg>