<svg xmlns="http://www.w3.org/2000/svg" width="45.5" height="35" viewBox="0 0 45.5 35"><path d="M-22.75-38.5v35h45.5v-35Zm3.5,3.5h38.5V-7H13.289a1.7,1.7,0,0,1-.109-.383.752.752,0,0,0-.164-.383A3.407,3.407,0,0,0,10.5-8.75a3.407,3.407,0,0,0-2.516.984.752.752,0,0,0-.164.383A1.7,1.7,0,0,1,7.711-7H-7.711a1.7,1.7,0,0,1-.109-.383.752.752,0,0,0-.164-.383A3.407,3.407,0,0,0-10.5-8.75a3.407,3.407,0,0,0-2.516.984.752.752,0,0,0-.164.383A1.7,1.7,0,0,1-13.289-7H-19.25ZM-7-31.5a6.646,6.646,0,0,0-3.5.957A7.382,7.382,0,0,0-13.043-28,6.646,6.646,0,0,0-14-24.5a6.562,6.562,0,0,0,.574,2.707,7.519,7.519,0,0,0,1.559,2.27,8.587,8.587,0,0,0-2.844,3.145A8.622,8.622,0,0,0-15.75-12.25h3.5a5.063,5.063,0,0,1,1.531-3.719A5.063,5.063,0,0,1-7-17.5a5.063,5.063,0,0,1,3.719,1.531A5.063,5.063,0,0,1-1.75-12.25h3.5A8.622,8.622,0,0,0,.711-16.379a8.587,8.587,0,0,0-2.844-3.145,7.519,7.519,0,0,0,1.559-2.27A6.562,6.562,0,0,0,0-24.5,6.646,6.646,0,0,0-.957-28,7.382,7.382,0,0,0-3.5-30.543,6.646,6.646,0,0,0-7-31.5ZM-7-28a3.382,3.382,0,0,1,2.488,1.012A3.382,3.382,0,0,1-3.5-24.5a3.382,3.382,0,0,1-1.012,2.488A3.382,3.382,0,0,1-7-21a3.382,3.382,0,0,1-2.488-1.012A3.382,3.382,0,0,1-10.5-24.5a3.382,3.382,0,0,1,1.012-2.488A3.382,3.382,0,0,1-7-28ZM5.25-26.25v3.5h10.5v-3.5Zm0,7v3.5h10.5v-3.5Z" transform="translate(22.75 38.5)" fill="#e33730"/></svg>