<svg xmlns="http://www.w3.org/2000/svg" width="38.932" height="38.932" viewBox="0 0 38.932 38.932"><path d="M25.955-38.932a19.049,19.049,0,0,0-9.835,2.687A18.515,18.515,0,0,0,9.175-29.3a19.049,19.049,0,0,0-2.687,9.835A19.049,19.049,0,0,0,9.175-9.632a18.894,18.894,0,0,0,6.945,7A19.328,19.328,0,0,0,25.955,0,19.328,19.328,0,0,0,35.79-2.636a19.285,19.285,0,0,0,7-7,19.328,19.328,0,0,0,2.636-9.835A19.328,19.328,0,0,0,42.785-29.3a18.894,18.894,0,0,0-7-6.945A19.049,19.049,0,0,0,25.955-38.932Zm-1.673,3.346h.051v1.521h3.244v-1.521a15.569,15.569,0,0,1,6.97,2.357,16.421,16.421,0,0,1,5.171,5.171,15.569,15.569,0,0,1,2.357,6.97H40.555v3.244h1.521a15.569,15.569,0,0,1-2.357,6.97A16.421,16.421,0,0,1,34.548-5.7a15.569,15.569,0,0,1-6.97,2.357V-4.867H24.333v1.521A15.569,15.569,0,0,1,17.362-5.7a16.421,16.421,0,0,1-5.171-5.171,15.569,15.569,0,0,1-2.357-6.97h1.521v-3.244H9.835a15.569,15.569,0,0,1,2.357-6.97A16.262,16.262,0,0,1,17.337-33.2,16.065,16.065,0,0,1,24.282-35.587ZM36.5-30.01,22.964-22.457,15.411-8.922l13.535-7.553ZM25.955-21.9a2.347,2.347,0,0,1,1.724.71,2.347,2.347,0,0,1,.71,1.724,2.347,2.347,0,0,1-.71,1.724,2.347,2.347,0,0,1-1.724.71,2.347,2.347,0,0,1-1.724-.71,2.347,2.347,0,0,1-.71-1.724,2.347,2.347,0,0,1,.71-1.724A2.347,2.347,0,0,1,25.955-21.9Z" transform="translate(-6.489 38.932)" fill="#e33730"/></svg>